<?xml version="1.0" standalone="no"?>
<!DOCTYPE svg PUBLIC "-//W3C//DTD SVG 20010904//EN"
 "http://www.w3.org/TR/2001/REC-SVG-20010904/DTD/svg10.dtd">
<svg version="1.0" xmlns="http://www.w3.org/2000/svg"
 width="260.000000pt" height="260.000000pt" viewBox="0 0 260.000000 260.000000"
 preserveAspectRatio="xMidYMid meet">
<metadata>
Created by potrace 1.11, written by Peter Selinger 2001-2013
</metadata>
<g transform="translate(0.000000,260.000000) scale(0.100000,-0.100000)"
fill="#000000" stroke="none">
<path d="M184 2340 c0 -16 6 -30 12 -30 32 0 119 -35 144 -58 23 -21 150 -255
150 -276 0 -3 11 -29 24 -58 33 -74 256 -590 639 -1480 96 -224 103 -238 128
-238 28 0 10 -36 285 578 13 28 36 78 50 110 14 31 87 192 161 357 75 165 148
327 163 360 15 33 42 94 60 135 87 202 194 403 244 457 47 52 147 113 184 113
7 0 12 13 12 30 l0 30 -350 0 -350 0 0 -29 c0 -28 1 -28 70 -35 164 -15 229
-85 201 -216 -13 -61 -41 -132 -123 -320 -62 -139 -71 -160 -143 -320 -206
-455 -245 -544 -245 -553 0 -26 -23 20 -105 213 -128 298 -215 501 -230 535
-24 52 -170 397 -193 455 -58 147 -24 197 145 208 l83 5 0 28 0 29 -509 0
-509 0 2 -30z"/>
</g>
</svg>
